<svg width="68" height="17" viewBox="0 0 68 17" fill="none" xmlns="http://www.w3.org/2000/svg">
<g id="SQ Krisflyer">
<path id="Vector" d="M55.8056 16.7816H55.3965V14.0042H55.6764C55.9993 14.0042 56.3223 14.0042 56.6452 14.0042C56.7744 14.0042 56.8821 14.0042 57.0113 14.0472C57.3988 14.1549 57.6141 14.4348 57.6356 14.8223C57.6356 15.1883 57.4419 15.4897 57.0758 15.6189C57.0543 15.6189 57.0113 15.6405 56.9682 15.662C57.2481 16.028 57.5065 16.3725 57.7863 16.76C57.6141 16.76 57.4634 16.76 57.3127 16.76C57.2911 16.76 57.2481 16.717 57.2266 16.6739C57.0113 16.394 56.796 16.0926 56.5807 15.8127C56.5591 15.7696 56.4945 15.7266 56.4515 15.7266C56.2577 15.7266 56.0639 15.7266 55.8486 15.7266V16.76L55.8056 16.7816ZM55.8056 14.3917V15.3606C55.9778 15.3606 56.15 15.3606 56.3438 15.3606C56.4945 15.3606 56.6668 15.3606 56.8175 15.3175C57.0758 15.2744 57.2266 15.0807 57.205 14.8438C57.205 14.607 57.0543 14.4132 56.7744 14.3917C56.4515 14.3702 56.1285 14.3917 55.8056 14.3917Z" fill="#1C3ACD"/>
<path id="Vector_2" d="M7.1903 14.0041H7.57785V16.76C7.38408 16.7815 7.2549 16.76 7.10418 16.5878C6.65205 15.9849 6.17838 15.4036 5.70472 14.8007C5.68319 14.7577 5.66166 14.7362 5.59706 14.6716V16.7385H5.18799V13.9611C5.29564 13.9611 5.40329 13.9611 5.51094 13.9611C5.554 13.9611 5.59706 14.0041 5.61859 14.0472C6.09226 14.65 6.58746 15.2744 7.06112 15.8773C7.08265 15.8988 7.10418 15.9418 7.14724 15.9849V13.9611L7.1903 14.0041Z" fill="#1C3ACD"/>
<path id="Vector_3" d="M41.7678 16.76H41.3588V13.9826C41.4664 13.9826 41.5741 13.9826 41.6602 13.9826C41.7033 13.9826 41.7678 14.0257 41.7894 14.0687C42.2846 14.6931 42.7582 15.296 43.2534 15.9203C43.2534 15.9203 43.2965 15.9634 43.318 16.0065V13.9826H43.7056V16.7385C43.5118 16.7815 43.3826 16.7385 43.2319 16.5662C42.7798 15.9634 42.2846 15.3605 41.8109 14.7577C41.8109 14.7362 41.7678 14.7146 41.7463 14.6716V16.7385L41.7678 16.76Z" fill="#1A38CC"/>
<path id="Vector_4" d="M34.3614 15.7481V16.7815H33.9523V14.0256C33.9954 14.0256 34.0385 14.0256 34.0815 14.0256C34.4691 14.0256 34.8351 14.0256 35.2226 14.0256C35.3518 14.0256 35.4595 14.0256 35.5886 14.0687C35.9762 14.1763 36.1915 14.4778 36.213 14.8438C36.213 15.2098 36.0192 15.5112 35.6317 15.6404C35.6102 15.6404 35.5671 15.6619 35.524 15.6835C35.8039 16.0495 36.0623 16.394 36.3422 16.7815C36.17 16.7815 36.0192 16.7815 35.8685 16.7815C35.847 16.7815 35.8039 16.7385 35.7824 16.7169C35.5671 16.4155 35.3518 16.1356 35.115 15.8342C35.0719 15.7911 35.0073 15.7481 34.9643 15.7481C34.7705 15.7481 34.5767 15.7481 34.3829 15.7481H34.3614ZM34.3614 15.382C34.7059 15.382 35.0288 15.382 35.3518 15.339C35.6102 15.2959 35.7609 15.1021 35.7609 14.8653C35.7609 14.6285 35.5886 14.4347 35.3303 14.4347C35.0073 14.4132 34.6844 14.4347 34.3614 14.4347C34.3614 14.4347 34.3614 14.4347 34.3614 14.4562C34.3614 14.7577 34.3614 15.0591 34.3614 15.4036V15.382Z" fill="#1B39CD"/>
<path id="Vector_5" d="M19.3114 16.8246C18.5148 16.8246 17.9119 16.2217 17.9119 15.4036C17.9119 14.5639 18.5363 13.9611 19.376 13.9611C20.1726 13.9611 20.7755 14.5854 20.7755 15.4036C20.7755 16.2217 20.1511 16.8461 19.3329 16.8461L19.3114 16.8246ZM19.3329 16.437C19.8927 16.437 20.3233 15.9849 20.3233 15.4036C20.3233 14.8007 19.8927 14.3486 19.3329 14.3486C18.7731 14.3486 18.3425 14.8007 18.3425 15.3821C18.3425 15.9849 18.7731 16.437 19.3545 16.437H19.3329Z" fill="#1C3ACD"/>
<path id="Vector_6" d="M23.9625 16.7815C23.7903 16.7815 23.6396 16.7815 23.5104 16.7815C23.4673 16.7815 23.4243 16.7385 23.4027 16.6954C23.1874 16.4155 22.9721 16.1356 22.7568 15.8342C22.7138 15.7696 22.6492 15.7481 22.563 15.7481C22.3908 15.7481 22.197 15.7481 22.0033 15.7481V16.7815H21.5942V14.0256C22.0463 14.0256 22.4984 14.0256 22.9506 14.0256C23.575 14.0687 23.941 14.607 23.7472 15.1667C23.6611 15.382 23.5104 15.5112 23.3166 15.6189C23.252 15.6404 23.1874 15.6619 23.1228 15.705C23.4027 16.071 23.6611 16.4155 23.941 16.803L23.9625 16.7815ZM22.0033 15.3605C22.2401 15.3605 22.4554 15.3605 22.6707 15.3605C22.7783 15.3605 22.9075 15.3605 23.0152 15.339C23.2735 15.2744 23.4243 15.1021 23.4243 14.8653C23.4243 14.6285 23.2951 14.4562 23.0367 14.4132C22.7138 14.3701 22.3693 14.3701 22.0248 14.3701V15.3605H22.0033Z" fill="#1A38CC"/>
<path id="Vector_7" d="M59.7455 16.8246C58.9273 16.8246 58.346 16.2217 58.346 15.3821C58.346 14.5639 58.9704 13.9611 59.7885 13.9611C60.5852 13.9611 61.188 14.5854 61.188 15.3821C61.188 16.2002 60.5636 16.8246 59.7455 16.8246ZM59.7455 14.3271C59.1857 14.3271 58.7551 14.7792 58.7551 15.3605C58.7551 15.9634 59.1857 16.4155 59.767 16.4155C60.3268 16.4155 60.7574 15.9634 60.7574 15.3821C60.7574 14.7792 60.3268 14.3271 59.7455 14.3271Z" fill="#1C3ACD"/>
<path id="Vector_8" d="M10.8932 14.3486C10.8071 14.4563 10.721 14.5424 10.6564 14.6285C10.4626 14.5424 10.2904 14.4132 10.1181 14.3702C9.40761 14.1764 8.80476 14.7146 8.86935 15.4682C8.89088 15.8557 9.04159 16.1572 9.40761 16.3294C9.79516 16.5016 10.1612 16.4586 10.5272 16.2433C10.5487 16.2433 10.5918 16.1787 10.5918 16.1356C10.5918 15.9634 10.5918 15.7911 10.5918 15.6189H9.77362V15.2529H10.9793C10.9793 15.6189 10.9793 15.9849 10.9793 16.3509C10.9793 16.3725 10.9578 16.4155 10.9363 16.4155C10.3334 16.9538 9.29996 16.9753 8.78323 16.3725C8.41722 15.9203 8.3311 15.4251 8.52487 14.8869C8.69711 14.3701 9.08466 14.0472 9.62291 13.9826C10.0966 13.918 10.5487 14.0257 10.9147 14.3702L10.8932 14.3486Z" fill="#1C3ACD"/>
<path id="Vector_9" d="M54.3416 14.3486C54.2555 14.4563 54.1694 14.5424 54.1048 14.6285C53.8895 14.5424 53.7172 14.4132 53.5019 14.3701C52.7484 14.1979 52.2316 14.8223 52.2962 15.4682C52.3393 15.9849 52.5977 16.3294 53.0498 16.4155C53.3728 16.4801 53.6742 16.4155 53.9541 16.2433C53.9971 16.2433 54.0187 16.1787 54.0187 16.1356C54.0187 15.9634 54.0187 15.8127 54.0187 15.6189H53.222V15.2314H54.4277C54.4277 15.2744 54.4277 15.3175 54.4277 15.339C54.4277 15.6189 54.4277 15.9203 54.4277 16.2002C54.4277 16.3294 54.3847 16.4155 54.277 16.4801C53.8679 16.76 53.4158 16.8677 52.9206 16.76C52.1455 16.5878 51.7795 15.8988 51.8872 15.1883C51.9733 14.5208 52.4039 14.0472 53.0498 13.9395C53.5235 13.8534 53.9756 13.9826 54.3416 14.3271V14.3486Z" fill="#1B39CD"/>
<path id="Vector_10" d="M24.8234 14.0042H26.8473V14.3702H25.2325V15.1668H26.675V15.5543H25.2325V16.394H26.8688V16.76H24.8234V14.0042Z" fill="#1B39CD"/>
<path id="Vector_11" d="M46.8059 14.3702H45.1911V15.1668H46.6337V15.5543H45.1911V16.3725H46.8274V16.7385H44.782V13.9826H46.8059V14.3486V14.3702Z" fill="#1A38CC"/>
<path id="Vector_12" d="M28.9572 16.7815C29.1725 16.3079 29.3878 15.8557 29.5816 15.3821C29.7754 14.9515 29.9691 14.5209 30.1629 14.0902C30.206 14.0041 30.249 13.9611 30.3351 13.9826C30.3997 13.9826 30.4428 13.9826 30.5074 13.9826C30.5504 13.9826 30.5935 14.0041 30.5935 14.0472C31.0026 14.9515 31.4117 15.8557 31.8207 16.76C31.8207 16.76 31.8207 16.76 31.8207 16.7815C31.6915 16.7815 31.5624 16.7815 31.4332 16.7815C31.4117 16.7815 31.3686 16.7385 31.3471 16.6954C31.2609 16.5232 31.1964 16.3509 31.1102 16.1787C31.0887 16.1141 31.0456 16.071 30.9595 16.071C30.572 16.071 30.1629 16.071 29.7754 16.071C29.7108 16.071 29.6677 16.071 29.6462 16.1572C29.5816 16.3294 29.4955 16.5232 29.4093 16.6954C29.4093 16.7385 29.3232 16.7815 29.2802 16.7815C29.1725 16.7815 29.0649 16.7815 28.9357 16.7815H28.9572ZM29.8615 15.6835H30.8949C30.7227 15.2959 30.5504 14.9299 30.3782 14.5209C30.206 14.9299 30.0337 15.2959 29.8615 15.6835Z" fill="#1B39CD"/>
<path id="Vector_13" d="M11.5606 16.7815C11.7328 16.394 11.8835 16.0495 12.0558 15.6835C12.2926 15.1667 12.5295 14.65 12.7448 14.1333C12.7878 14.0041 12.8524 13.9611 12.9816 13.9826C13.0462 13.9826 13.1108 13.9826 13.1754 13.9826C13.606 14.9084 14.015 15.8342 14.4457 16.7815C14.2949 16.7815 14.1873 16.7815 14.0581 16.7815C14.015 16.7815 13.972 16.7385 13.9505 16.6954C13.8643 16.5232 13.7997 16.3509 13.7136 16.1787C13.6921 16.1141 13.649 16.071 13.5629 16.071C13.1754 16.071 12.7878 16.071 12.3787 16.071C12.2926 16.071 12.2711 16.0925 12.228 16.1571C12.1634 16.3294 12.0773 16.5232 11.9912 16.6954C11.9912 16.7385 11.9266 16.76 11.8835 16.76C11.7759 16.76 11.6682 16.76 11.5391 16.76L11.5606 16.7815ZM13.5414 15.6835C13.3691 15.2959 13.1969 14.9084 13.0247 14.5208C12.8524 14.9299 12.6802 15.2959 12.5079 15.6835H13.5629H13.5414Z" fill="#1B39CD"/>
<path id="Vector_14" d="M2.60399 14.3271C2.51787 14.4563 2.43175 14.5424 2.36716 14.65C2.21644 14.5639 2.08726 14.4778 1.95808 14.4132C1.76431 14.3271 1.57053 14.3056 1.35523 14.3701C1.16146 14.4347 1.07534 14.5424 1.05381 14.7146C1.05381 14.8653 1.1184 14.9945 1.31217 15.0591C1.46288 15.1237 1.63512 15.1668 1.80737 15.2098C1.95808 15.2529 2.08726 15.2959 2.21644 15.3605C2.47481 15.4897 2.64705 15.6835 2.64705 15.9849C2.64705 16.2648 2.5394 16.5016 2.28103 16.6739C2.00114 16.8461 1.67818 16.8677 1.35523 16.8246C1.01075 16.76 0.730852 16.6093 0.494019 16.3725C0.58014 16.2648 0.666261 16.1787 0.752382 16.071C0.881564 16.1572 0.989216 16.2433 1.1184 16.3294C1.37676 16.4801 1.63512 16.5016 1.91502 16.4371C2.0442 16.394 2.15185 16.3294 2.19491 16.1787C2.2595 16.0064 2.19491 15.8342 2.02267 15.7696C1.8289 15.6835 1.63512 15.6404 1.41982 15.5758C1.29064 15.5328 1.16146 15.4897 1.03228 15.4467C0.752382 15.3175 0.60167 15.1022 0.60167 14.8008C0.60167 14.4993 0.730852 14.2625 1.01075 14.1118C1.41982 13.8965 1.8289 13.9611 2.23797 14.1548C2.34562 14.1979 2.45327 14.284 2.56093 14.3701L2.60399 14.3271Z" fill="#1C3ACD"/>
<path id="Vector_15" d="M47.4302 16.3294C47.5163 16.2218 47.6024 16.1356 47.6885 16.028C47.9038 16.2218 48.1191 16.3725 48.399 16.4155C48.5713 16.4155 48.7435 16.4155 48.9158 16.3725C49.0665 16.3294 49.1526 16.2218 49.1741 16.0495C49.1741 15.8773 49.088 15.7696 48.9373 15.705C48.7651 15.6405 48.5713 15.5974 48.399 15.5328C48.2483 15.4897 48.0976 15.4467 47.9684 15.3821C47.4517 15.1453 47.4732 14.4348 47.8608 14.1549C48.2268 13.8965 48.6359 13.8965 49.0449 14.0472C49.2172 14.1118 49.3679 14.2195 49.5401 14.3056C49.454 14.4348 49.3679 14.5209 49.2818 14.6501C49.2387 14.607 49.1957 14.5855 49.1526 14.5424C48.8942 14.3702 48.6143 14.284 48.2914 14.3486C48.0976 14.3917 47.99 14.5209 47.99 14.6716C47.99 14.8438 48.0546 14.973 48.2483 15.0376C48.399 15.1022 48.5713 15.1237 48.7435 15.1883C48.8942 15.2314 49.0234 15.2744 49.1526 15.339C49.411 15.4467 49.5832 15.662 49.5832 15.9634C49.5832 16.2864 49.454 16.5232 49.1957 16.6739C48.9373 16.8246 48.6359 16.8461 48.356 16.8031C48.0115 16.76 47.7101 16.5878 47.4517 16.351L47.4302 16.3294Z" fill="#1C3ACD"/>
<path id="Vector_16" d="M62.0494 14.0042H62.4584C62.4584 14.4563 62.4584 14.9084 62.4584 15.3606C62.4584 15.5328 62.4584 15.705 62.48 15.8773C62.5445 16.2002 62.7599 16.394 63.0613 16.4371C63.4058 16.5017 63.7072 16.3725 63.8364 16.1141C63.901 15.9634 63.944 15.7912 63.944 15.6189C63.944 15.1237 63.944 14.6285 63.944 14.1333V14.0042H64.3531C64.3531 14.0472 64.3531 14.0903 64.3531 14.1333C64.3531 14.6285 64.3531 15.1237 64.3531 15.6189C64.3531 15.8127 64.31 16.028 64.2454 16.2002C64.0517 16.6739 63.5565 16.9107 62.9967 16.8246C62.3938 16.7385 62.0493 16.3725 62.0278 15.7266C62.0063 15.1668 62.0278 14.5855 62.0278 14.0042H62.0494Z" fill="#1C3ACD"/>
<path id="Vector_17" d="M65.9462 15.8342V16.76H65.5371V14.0041C65.9677 14.0041 66.3983 13.9611 66.8289 14.0041C67.3457 14.0472 67.6471 14.4132 67.6471 14.8653C67.6471 15.339 67.3456 15.705 66.8505 15.7696C66.5921 15.8127 66.3337 15.7911 66.0754 15.8127C66.0323 15.8127 65.9892 15.8127 65.9462 15.8127V15.8342ZM65.9462 14.3917V15.4682C66.2261 15.4682 66.506 15.4682 66.7859 15.4251C67.0873 15.3821 67.238 15.1668 67.238 14.9084C67.238 14.65 67.0658 14.4347 66.7859 14.4132C66.506 14.3917 66.2476 14.4132 65.9677 14.4132L65.9462 14.3917Z" fill="#1A38CC"/>
<path id="Vector_18" d="M15.5655 15.8342V16.76H15.1564V14.0042C15.178 14.0042 15.221 14.0042 15.2641 14.0042C15.6086 14.0042 15.9531 14.0042 16.276 14.0042C16.3837 14.0042 16.4913 14.0042 16.5774 14.0472C17.008 14.1549 17.2664 14.4778 17.2664 14.9084C17.2664 15.339 17.008 15.6835 16.5774 15.7912C16.4267 15.8342 16.276 15.8342 16.1038 15.8558C15.9315 15.8558 15.7378 15.8558 15.544 15.8558L15.5655 15.8342ZM15.587 15.4252C15.8669 15.4252 16.1253 15.4467 16.3837 15.4252C16.6851 15.3821 16.8573 15.1668 16.8573 14.9084C16.8573 14.6285 16.7066 14.4348 16.4052 14.3917C16.1253 14.3702 15.8669 14.3917 15.587 14.3917V15.4252Z" fill="#1B39CD"/>
<path id="Vector_19" d="M37.1172 14.0042H37.5263V16.394H39.0119V16.7816H37.1172V14.0257V14.0042Z" fill="#1B39CD"/>
<path id="Vector_20" d="M32.897 16.7815H32.5095V14.0256H32.897V16.7815Z" fill="#1C3ACD"/>
<path id="Vector_21" d="M40.2824 16.76H39.8734V14.0042H40.2824V16.76Z" fill="#1C3ACD"/>
<path id="Vector_22" d="M3.57281 14.0042H3.96036V16.76H3.57281V14.0042Z" fill="#1A38CC"/>
<g id="Group">
<path id="Vector_23" d="M26.6317 6.29629C26.5456 6.25323 26.4595 6.18864 26.3734 6.14558C25.8782 5.86569 25.3614 5.5858 24.8878 5.28437C24.2849 4.8753 23.9404 4.31551 24.0481 3.56195C24.1127 3.02369 24.3926 2.63615 24.8878 2.39931C25.2968 2.20554 25.7275 2.20554 26.1581 2.22707C26.7179 2.22707 27.1915 2.44237 27.6006 2.82992C27.6867 2.91604 27.7513 2.98063 27.859 3.06675V1.71034C27.0193 1.68881 26.1796 1.64575 25.3399 1.64575C24.8878 1.64575 24.4356 1.77493 24.0266 1.96871C22.6056 2.63615 22.4118 4.18633 22.8639 5.11213C23.0577 5.54273 23.3807 5.86569 23.7682 6.10252C24.4141 6.5116 25.0815 6.87761 25.7275 7.26516C25.792 7.30822 25.8351 7.35128 25.8997 7.39434C26.4164 7.76035 26.804 8.23402 26.847 8.90146C26.9116 9.67655 26.5887 10.4086 25.792 10.71C25.1031 10.9684 24.4141 10.9253 23.7467 10.6669C23.1654 10.4516 22.7563 10.021 22.4118 9.52584C22.3903 9.48278 22.3472 9.43972 22.3041 9.37513C22.3041 9.87032 22.3041 10.344 22.3041 10.8177C22.3041 10.9253 22.3472 10.9684 22.4333 11.0114C23.0577 11.2267 23.7251 11.3774 24.3926 11.442C25.4691 11.5497 26.4595 11.3129 27.2992 10.6239C28.1389 9.95644 28.4833 8.81534 28.1388 7.82495C27.8805 7.11445 27.3207 6.66231 26.6748 6.31782L26.6317 6.29629Z" fill="url(#paint0_linear_11184_23012)"/>
<path id="Vector_24" d="M20.1508 9.67652C20.1508 8.23399 20.1508 6.76993 20.1508 5.3274C20.1508 5.28434 20.1508 5.21975 20.1508 5.17669C20.1508 4.53078 20.1508 3.86334 20.1508 3.21743C20.1508 3.04519 20.1508 2.89448 20.1939 2.72223C20.2585 2.44234 20.3446 2.14092 20.4307 1.86102H18.5361C18.6006 2.07633 18.7083 2.2701 18.7298 2.4854C18.7729 2.87295 18.8159 3.26049 18.8159 3.64804C18.8159 4.50925 18.8159 5.37046 18.8159 6.21014C18.8159 6.2532 18.8159 6.31779 18.8159 6.36085C18.8159 6.40392 18.8159 6.44698 18.8159 6.49004C18.8159 7.56655 18.8159 8.64307 18.8159 9.71958C18.8159 10.2148 18.7729 10.71 18.5145 11.1621H20.4307C20.3661 10.9683 20.28 10.7961 20.2585 10.6023C20.2154 10.2794 20.1508 9.95641 20.1508 9.63346V9.67652Z" fill="url(#paint1_linear_11184_23012)"/>
<path id="Vector_25" d="M16.7062 10.5808C16.2325 9.97795 15.7588 9.35357 15.3067 8.7292C14.9838 8.29859 14.6823 7.86798 14.3594 7.43738C14.101 7.07136 13.8426 6.70535 13.5843 6.36086C13.8857 6.18862 14.1871 6.03791 14.4455 5.86566C15.1775 5.37047 15.6727 4.72456 15.7158 3.79876C15.7588 3.02367 15.479 2.39929 14.7685 2.01174C14.3163 1.77491 13.8211 1.71032 13.3259 1.73185C12.6585 1.75338 11.991 1.79644 11.3236 1.81797C10.8499 1.8395 10.3763 1.86103 9.9026 1.88256C9.94566 1.99021 10.0103 2.11939 10.0533 2.24858C10.1825 2.65765 10.204 3.08826 10.204 3.51886C10.204 5.54271 10.204 7.56656 10.204 9.61194C10.204 9.93489 10.161 10.2363 10.0964 10.5593C10.0533 10.7961 9.92413 11.0114 9.83801 11.2482H11.8403C11.6035 10.8176 11.5389 10.344 11.5389 9.89183C11.5389 8.87991 11.5389 7.84645 11.5389 6.83453C11.5389 6.79147 11.5389 6.74841 11.5389 6.70535C11.9265 6.70535 12.2709 6.813 12.5293 7.11442C12.637 7.2436 12.7446 7.37279 12.8307 7.50197C13.046 7.78186 13.2398 8.08328 13.4551 8.36318C13.7135 8.75072 13.9718 9.11674 14.2517 9.50429C14.5747 9.95642 14.8761 10.387 15.1991 10.8176C15.4144 11.0975 15.7373 11.2267 16.0818 11.2267C16.4693 11.2267 16.8569 11.2267 17.2229 11.2267C17.2444 11.2267 17.266 11.2267 17.2875 11.2267C17.0937 11.0114 16.8784 10.8176 16.6846 10.6023L16.7062 10.5808ZM12.8307 6.05944C12.4001 6.14556 11.991 6.12403 11.5604 6.05944V2.29164C11.8834 2.29164 12.2063 2.29164 12.5078 2.29164C12.8092 2.29164 13.0891 2.35623 13.3905 2.39929C13.9503 2.52847 14.2517 2.87296 14.3594 3.43274C14.4455 3.88488 14.424 4.33701 14.2948 4.76762C14.0795 5.47812 13.5628 5.8872 12.8523 6.01638L12.8307 6.05944Z" fill="url(#paint2_linear_11184_23012)"/>
<path id="Vector_26" d="M43.4897 9.82723C43.4897 9.82723 43.4467 9.84876 43.4467 9.87029C42.9945 10.2794 42.4563 10.5593 41.8534 10.5808C41.2936 10.6239 40.7339 10.6023 40.1525 10.6023C40.1525 10.6023 40.1525 10.6023 40.1095 10.6023C40.1095 10.5593 40.1095 10.5162 40.1095 10.4516C40.1095 9.91335 40.1095 9.3751 40.1095 8.83684C40.1095 8.77225 40.1095 8.72919 40.1095 8.6646C40.1095 6.92064 40.1095 5.17669 40.1095 3.43273C40.1095 3.10978 40.1525 2.80836 40.1956 2.4854C40.2387 2.2701 40.3248 2.07633 40.3894 1.86102H38.4516C38.7315 2.33469 38.7531 2.85142 38.7746 3.34661C38.7746 4.53078 38.7746 5.69342 38.7746 6.87758C38.7746 7.97563 38.7746 9.07367 38.6024 10.1717C38.5162 10.5162 38.4732 10.8822 38.2579 11.2052C39.9157 11.2052 41.5735 11.2052 43.2098 11.2052C43.296 10.7315 43.4036 10.2794 43.4897 9.82723C43.4682 9.82723 43.4682 9.82723 43.4682 9.82723H43.4897Z" fill="url(#paint3_linear_11184_23012)"/>
<path id="Vector_27" d="M56.1711 10.6023C55.5467 10.6023 54.9223 10.6023 54.2979 10.6023C54.2549 10.6023 54.2333 10.6023 54.1903 10.6023C54.1903 10.344 54.1903 10.1071 54.1903 9.84876C54.1903 9.84876 54.1903 9.8057 54.1903 9.78417C54.1903 8.8799 54.1903 7.97563 54.1903 7.09289C54.1903 6.9637 54.1903 6.83452 54.1903 6.70534C54.2549 6.70534 54.3195 6.70534 54.3841 6.70534C54.9438 6.68381 55.5036 6.66228 56.0849 6.61922C56.4725 6.59769 56.86 6.49004 57.2045 6.27473C57.3768 6.16708 57.5275 6.05943 57.6567 5.84413C56.494 5.95178 55.3529 5.95178 54.2118 5.93025C54.2118 5.73648 54.2118 5.56423 54.2118 5.39199C54.2118 5.13363 54.2118 4.87526 54.2118 4.6169C54.2118 4.57384 54.2118 4.50925 54.2118 4.46619C54.2118 3.84181 54.2118 3.23896 54.2118 2.61458V2.4854H56.3433C56.8385 2.54999 57.3337 2.65764 57.7428 3.00213C57.7213 2.59305 57.6997 2.22704 57.6782 1.86102H56.86H56.817C55.439 1.86102 54.0611 1.86102 52.6832 1.86102C52.6616 1.86102 52.6186 1.86102 52.597 1.86102C52.6616 2.01173 52.7262 2.16245 52.7693 2.33469C52.8985 2.74376 52.8769 3.15284 52.8985 3.56192C52.8985 4.31548 52.8985 5.06904 52.8985 5.8226C52.8985 5.86566 52.8985 5.93025 52.8985 5.97331C52.8985 7.09288 52.8985 8.21246 52.8985 9.33203C52.8985 9.65499 52.8985 9.97794 52.8339 10.3009C52.7908 10.6023 52.6832 10.8822 52.597 11.1836H52.8554C52.8985 11.1836 52.9631 11.1836 53.0061 11.1836C54.0396 11.1836 55.073 11.1836 56.1065 11.1836C56.7524 11.1836 57.4198 11.1406 58.0657 11.119C58.1519 11.119 58.1949 11.0975 58.1949 11.0114C58.1949 10.8822 58.238 10.7746 58.2595 10.6454C58.3241 10.3655 58.3672 10.0856 58.4318 9.78417C58.3887 9.8057 58.3672 9.8057 58.3672 9.82723C57.7428 10.344 56.9892 10.5593 56.1926 10.6023H56.1711Z" fill="url(#paint4_linear_11184_23012)"/>
<path id="Vector_28" d="M67.4529 11.076C67.0869 10.7531 66.764 10.3871 66.4625 9.99951C66.2257 9.67656 65.9889 9.37514 65.7736 9.05218C65.5152 8.68617 65.2568 8.34168 64.9985 7.97567C64.6971 7.54506 64.3741 7.13598 64.0727 6.70538C63.9865 6.5762 63.9004 6.44701 63.7928 6.31783C63.9866 6.21018 64.2019 6.12406 64.3956 6.01641C64.9554 5.69346 65.4506 5.26285 65.7305 4.66C65.9673 4.14327 66.0319 3.60502 65.8597 3.04523C65.6229 2.24861 65.0415 1.88259 64.2449 1.75341C63.6205 1.64576 63.0177 1.75341 62.3933 1.75341C62.0488 1.75341 61.7259 1.818 61.3814 1.818C61.0369 1.818 60.6709 1.818 60.3264 1.83953C60.2618 1.83953 60.1972 1.83953 60.1326 1.83953C60.1972 1.99025 60.2618 2.14096 60.3049 2.29167C60.4125 2.67921 60.4341 3.06676 60.4341 3.45431C60.4341 4.1648 60.4341 4.8753 60.4341 5.5858C60.4341 5.93029 60.4341 6.25324 60.4341 6.59773C60.4341 7.58812 60.4341 8.55698 60.4341 9.54738C60.4341 10.021 60.391 10.5162 60.1757 10.9468C60.1326 11.033 60.0896 11.0976 60.0465 11.1837H62.0704C61.812 10.71 61.7689 10.2148 61.7689 9.71962C61.7689 9.26748 61.7689 8.81535 61.7689 8.34168V6.64079C62.1349 6.66232 62.4579 6.72691 62.6732 6.98527C62.8454 7.17905 62.9962 7.39435 63.1684 7.60965C63.3406 7.41588 63.5344 7.22211 63.7067 7.04986C63.5129 7.24364 63.3406 7.43741 63.1684 7.60965C63.1684 7.63118 63.1899 7.67424 63.2115 7.69577C63.4483 8.01873 63.6636 8.36321 63.9004 8.68616C64.2019 9.09524 64.4817 9.52585 64.7832 9.93492C64.9554 10.1933 65.1277 10.4516 65.3214 10.6885C65.5152 10.9468 65.752 11.1191 66.075 11.1837C66.1826 11.1837 66.3118 11.1837 66.4195 11.1837C66.7855 11.1837 67.13 11.1837 67.496 11.1837C67.496 11.1837 67.496 11.1622 67.5175 11.1406C67.4745 11.1191 67.4314 11.076 67.3883 11.0545L67.4529 11.076ZM63.0823 6.05947C62.6732 6.14559 62.2426 6.12406 61.7905 6.05947V4.33705C61.7905 3.79879 61.7905 3.239 61.7905 2.70074C61.7905 2.57156 61.7905 2.44238 61.7905 2.29167C62.4364 2.29167 63.0823 2.27014 63.7067 2.42085C63.8574 2.50697 64.0296 2.57156 64.1803 2.67921C64.4387 2.87299 64.5463 3.15288 64.6109 3.47583C64.697 3.97103 64.6755 4.46623 64.4817 4.9399C64.2449 5.5858 63.7282 5.93029 63.0823 6.05947Z" fill="url(#paint5_linear_11184_23012)"/>
<path id="Vector_29" d="M8.91209 0.224763C8.91209 0.224763 8.91209 0.203232 8.91209 0.181702H6.78059C6.88824 0.633838 6.65141 0.978323 6.41457 1.32281C5.66101 2.22708 4.88592 3.13135 4.11083 4.01409C3.80941 4.35858 3.44339 4.68153 3.03432 4.91837C2.88361 5.00449 2.73289 5.04755 2.58218 5.13367C2.58218 5.06908 2.58218 5.02602 2.58218 5.00449C2.58218 4.03562 2.58218 3.04523 2.58218 2.07637C2.58218 1.75341 2.60371 1.45199 2.64677 1.12903C2.68983 0.80608 2.77595 0.483126 2.9482 0.181702H0.665986C0.730576 0.397005 0.816698 0.590778 0.881288 0.80608C1.01047 1.27975 1.01047 1.77494 1.01047 2.27014C1.01047 4.55235 1.01047 6.85609 1.01047 9.1383C1.01047 9.54738 0.967409 9.93492 0.924348 10.344C0.902818 10.6454 0.795167 10.9468 0.622925 11.2267H2.92667C2.64677 10.7531 2.58218 10.2148 2.56065 9.69809C2.56065 8.44934 2.56065 7.20058 2.56065 5.93029V5.88723C2.56065 5.80111 2.62524 5.77958 2.68983 5.84417C2.75442 5.88723 2.79748 5.95182 2.84054 6.01641C3.74482 7.37282 4.64909 8.75076 5.55336 10.1072C5.74713 10.4086 5.94091 10.71 6.15621 10.9899C6.28539 11.1837 6.47916 11.2698 6.716 11.2483C7.25426 11.2483 7.81404 11.2483 8.3523 11.2483H8.50301C8.45995 11.2052 8.43842 11.1837 8.43842 11.1622C8.00782 10.6454 7.55568 10.1287 7.16813 9.56891C6.2208 8.25556 5.295 6.92068 4.3692 5.58581C4.28307 5.45662 4.17542 5.30591 4.0893 5.17673C5.70407 3.5189 7.1466 1.66729 8.99821 0.267823L8.91209 0.224763Z" fill="url(#paint6_linear_11184_23012)"/>
<path id="Vector_30" d="M36.4496 0.203202C36.2558 0.203202 36.0836 0.160141 35.8898 0.160141C34.1243 0.160141 32.3588 0.160141 30.5933 0.160141H30.4426C30.5072 0.289323 30.5503 0.418505 30.6149 0.547687C30.7871 0.999823 30.7871 1.49502 30.7871 1.96869C30.7871 3.71264 30.7871 5.45659 30.7871 7.20055C30.7871 7.24361 30.7871 7.3082 30.7871 7.35126C30.7871 7.93258 30.7871 8.49236 30.7871 9.07368C30.7871 9.22439 30.7871 9.39664 30.7871 9.54735C30.7871 9.59041 30.7871 9.63347 30.7871 9.67653C30.7441 9.99949 30.701 10.344 30.6364 10.6669C30.5933 10.8392 30.5072 11.0114 30.4426 11.1837H32.7033C32.6172 10.9253 32.5095 10.6669 32.4665 10.387C32.3588 9.8703 32.3804 9.33205 32.3804 8.79379C32.3804 8.55695 32.3804 8.32012 32.3804 8.08329C32.3804 8.04023 32.3804 7.99717 32.3804 7.93258C32.3804 7.39432 32.3804 6.83453 32.3804 6.29627V6.16709C32.4019 6.16709 32.4019 6.16709 32.4234 6.16709C32.488 6.16709 32.5311 6.16709 32.5957 6.16709C33.3707 6.16709 34.1674 6.16709 34.9425 6.01638C35.3515 5.93026 35.7606 5.82261 36.1051 5.56424C36.2343 5.45659 36.3419 5.32741 36.4711 5.21976C36.4711 5.21976 36.4711 5.19823 36.4496 5.1767C36.385 5.1767 36.3204 5.1767 36.2558 5.1767C35.5668 5.19823 34.8779 5.24129 34.1889 5.26282C33.7583 5.26282 33.3277 5.26282 32.8756 5.26282H32.4019V0.78452C33.3277 0.80605 34.2535 0.80605 35.1793 0.870641C35.7175 0.913702 36.2127 1.10747 36.5357 1.58114C36.5357 1.60267 36.6003 1.60267 36.6218 1.6242C36.6218 1.60267 36.6649 1.55961 36.6649 1.53808C36.6649 1.129 36.6649 0.741459 36.6649 0.332384C36.6649 0.224732 36.6218 0.160141 36.5142 0.138611L36.4496 0.203202Z" fill="url(#paint7_linear_11184_23012)"/>
<path id="Vector_31" d="M49.3033 1.92563C49.454 2.1194 49.4971 2.3347 49.4756 2.57153C49.4325 2.93755 49.3033 3.28203 49.1311 3.58346C48.6359 4.48773 48.1407 5.392 47.6455 6.29627C47.6024 6.36086 47.5378 6.42546 47.4732 6.49005C47.4086 6.42546 47.3441 6.33933 47.3225 6.27474C47.2364 6.01638 47.1718 5.75802 47.0857 5.49965C46.9134 5.04752 46.7412 4.59538 46.569 4.14324C46.569 4.14324 46.569 4.10018 46.569 4.07865C46.2675 3.49734 45.9661 2.89449 45.6647 2.31317C45.514 2.01175 45.2556 1.88256 44.9111 1.90409C44.5021 1.90409 44.1145 1.90409 43.7054 1.90409C43.6839 1.90409 43.6408 1.90409 43.5978 1.90409C44.2652 2.55 44.7389 3.32509 45.1695 4.12171C45.3417 4.42314 45.4924 4.74609 45.6647 5.04752C45.7939 5.32741 45.9231 5.60731 46.0522 5.90873C46.3106 6.51158 46.5259 7.11443 46.5474 7.78186C46.5474 8.10482 46.5474 8.4493 46.5474 8.77226C46.5474 9.22439 46.5474 9.69806 46.5259 10.1502C46.5259 10.4732 46.4613 10.7961 46.3106 11.076C46.2891 11.1191 46.2675 11.1837 46.2245 11.2267H48.1622C48.1622 11.2052 48.1622 11.1837 48.1622 11.1837C47.9469 10.8176 47.9038 10.4086 47.8823 9.99949C47.8823 9.1598 47.8393 8.29859 47.9684 7.45891C48.1191 6.66229 48.4852 5.97332 48.9158 5.30588C49.5186 4.35855 50.1215 3.43275 50.7458 2.48541C50.875 2.29164 50.9827 2.09787 51.1334 1.90409H49.3033C49.3033 1.92562 49.3033 1.94716 49.3248 1.94716L49.3033 1.92563Z" fill="url(#paint8_linear_11184_23012)"/>
</g>
</g>
<defs>
<linearGradient id="paint0_linear_11184_23012" x1="0.0848694" y1="6.61925" x2="67.5608" y2="6.38242" gradientUnits="userSpaceOnUse">
<stop stop-color="#1A38CC"/>
<stop offset="1" stop-color="#62C2FC"/>
</linearGradient>
<linearGradient id="paint1_linear_11184_23012" x1="0.0846063" y1="6.59769" x2="67.5605" y2="6.36085" gradientUnits="userSpaceOnUse">
<stop stop-color="#1A38CC"/>
<stop offset="1" stop-color="#62C2FC"/>
</linearGradient>
<linearGradient id="paint2_linear_11184_23012" x1="0.0847879" y1="6.51157" x2="67.5607" y2="6.27474" gradientUnits="userSpaceOnUse">
<stop stop-color="#1A38CC"/>
<stop offset="1" stop-color="#62C2FC"/>
</linearGradient>
<linearGradient id="paint3_linear_11184_23012" x1="0.0846862" y1="6.68381" x2="67.5606" y2="6.44697" gradientUnits="userSpaceOnUse">
<stop stop-color="#1A38CC"/>
<stop offset="1" stop-color="#62C2FC"/>
</linearGradient>
<linearGradient id="paint4_linear_11184_23012" x1="0.0846442" y1="6.72687" x2="67.5606" y2="6.49004" gradientUnits="userSpaceOnUse">
<stop stop-color="#1A38CC"/>
<stop offset="1" stop-color="#62C2FC"/>
</linearGradient>
<linearGradient id="paint5_linear_11184_23012" x1="0.0846719" y1="6.68385" x2="67.5606" y2="6.44701" gradientUnits="userSpaceOnUse">
<stop stop-color="#1A38CC"/>
<stop offset="1" stop-color="#62C2FC"/>
</linearGradient>
<linearGradient id="paint6_linear_11184_23012" x1="0.0846674" y1="5.71499" x2="67.5606" y2="5.47816" gradientUnits="userSpaceOnUse">
<stop stop-color="#1A38CC"/>
<stop offset="1" stop-color="#62C2FC"/>
</linearGradient>
<linearGradient id="paint7_linear_11184_23012" x1="0.0849038" y1="5.80108" x2="67.5609" y2="5.56424" gradientUnits="userSpaceOnUse">
<stop stop-color="#1A38CC"/>
<stop offset="1" stop-color="#62C2FC"/>
</linearGradient>
<linearGradient id="paint8_linear_11184_23012" x1="0.085056" y1="6.70535" x2="67.561" y2="6.44699" gradientUnits="userSpaceOnUse">
<stop stop-color="#1A38CC"/>
<stop offset="1" stop-color="#62C2FC"/>
</linearGradient>
</defs>
</svg>
