<svg width="68" height="27" viewBox="0 0 68 27" fill="none" xmlns="http://www.w3.org/2000/svg">
<g id="Velocity logo">
<path id="Vector" d="M66.6296 7.67645C66.5031 7.99102 66.3701 8.30235 66.2502 8.61692C64.6903 12.6642 63.1304 16.7148 61.577 20.7653C61.5315 20.882 61.4797 20.9145 61.3564 20.9145C60.7565 20.908 60.1565 20.9145 59.5338 20.9145C59.6117 20.694 59.6863 20.4896 59.7609 20.2821C60.1533 19.2184 60.5457 18.1579 60.9316 17.0942C60.9575 17.0196 60.9543 16.9126 60.9219 16.8412C59.6863 13.8447 58.4474 10.8514 57.2054 7.85805C57.1794 7.79319 57.1535 7.72833 57.121 7.64401C57.1827 7.64077 57.2345 7.63429 57.2832 7.63429C57.9318 7.63429 58.5804 7.63753 59.229 7.63104C59.3587 7.63104 59.4171 7.66996 59.4625 7.78995C60.27 9.93359 61.084 12.074 61.898 14.2176C61.911 14.2468 61.924 14.276 61.9434 14.3246C61.9726 14.263 61.9985 14.2144 62.018 14.1657C62.8028 12.0318 63.5876 9.89467 64.3757 7.76076C64.3951 7.70888 64.4632 7.64077 64.5086 7.64077C65.2059 7.63429 65.9031 7.64077 66.6004 7.64077C66.6101 7.64077 66.6199 7.64401 66.6328 7.64726V7.67969L66.6296 7.67645Z" fill="#E00A0B"/>
<path id="Vector_2" d="M1.76895 7.67646C2.12568 7.67322 2.48241 7.66673 2.8359 7.66349C3.1829 7.66349 3.52667 7.66673 3.87367 7.66349C3.98718 7.66349 4.03906 7.69592 4.08122 7.80618C4.7655 9.69038 5.45627 11.5713 6.14379 13.4555C6.25405 13.7604 6.36756 14.062 6.48755 14.3928C6.51674 14.3214 6.54268 14.2728 6.56214 14.2209C7.34371 12.0967 8.12852 9.97253 8.9036 7.8451C8.95549 7.70565 9.01711 7.66025 9.16629 7.66349C9.77598 7.67322 10.3889 7.66673 10.9986 7.66673H11.177C11.0051 8.09157 10.8397 8.50019 10.6743 8.90881C9.61707 11.5162 8.5566 14.1236 7.50262 16.731C7.44424 16.8769 7.37289 16.9191 7.22047 16.9158C6.65943 16.9061 6.09839 16.9126 5.53086 16.9126C5.24547 16.2121 4.96333 15.5213 4.68118 14.8273C3.73422 12.5021 2.78401 10.1768 1.83381 7.85159C1.81435 7.80294 1.78516 7.76078 1.75922 7.71538C1.75922 7.70565 1.75922 7.69268 1.75922 7.68295L1.76895 7.67646Z" fill="#E00A0B"/>
<path id="Vector_3" d="M47.0089 1.44985C47.21 1.51795 47.3235 1.67037 47.4305 1.84225C47.7645 2.37735 48.1115 2.90596 48.452 3.43782C48.5039 3.52214 48.5623 3.55133 48.6596 3.55133C49.0163 3.55781 49.3731 3.5643 49.7266 3.59024C49.9049 3.60321 50.0671 3.68429 50.1871 3.85293C50.0152 4.0767 49.7687 4.12534 49.5158 4.13507C49.2239 4.14804 48.932 4.14156 48.6401 4.13507C48.5493 4.13507 48.4942 4.16426 48.4456 4.23885C48.0661 4.80962 47.6802 5.37391 47.304 5.94792C47.197 6.11332 47.0543 6.18791 46.8403 6.21061C47.0413 5.50039 47.2359 4.80638 47.4467 4.06372C47.0738 4.06372 46.73 4.0767 46.3862 4.06048C46.1819 4.05075 46.01 4.08967 45.8479 4.22263C45.7149 4.3329 45.5657 4.42046 45.4231 4.51775C45.3841 4.54369 45.3355 4.55666 45.2901 4.57612C45.2771 4.56315 45.2641 4.55018 45.2512 4.53396C45.3387 4.39451 45.4133 4.24858 45.5106 4.11886C45.6695 3.91455 45.676 3.72969 45.5171 3.52214C45.4198 3.39242 45.3517 3.24 45.2447 3.05514C45.329 3.07784 45.3614 3.08433 45.3939 3.09406C45.4101 3.10055 45.4198 3.11027 45.4328 3.12C45.6533 3.27567 45.8544 3.49944 46.1008 3.5643C46.3862 3.64213 46.7105 3.58051 47.0186 3.58051C47.1581 3.58051 47.2975 3.58051 47.4629 3.58051C47.3786 3.25945 47.2975 2.9611 47.2164 2.66274C47.1192 2.30276 47.0186 1.94603 46.9246 1.58605C46.9116 1.54065 46.9116 1.492 46.9051 1.44336C46.9375 1.44336 46.97 1.44336 47.0024 1.44336L47.0089 1.44985Z" fill="#E00A0B"/>
<path id="Vector_4" d="M47.301 25.4482C47.2199 25.4223 47.1421 25.3931 47.061 25.3672C46.9864 25.3412 46.9118 25.312 46.8243 25.2796C46.8697 25.1661 46.9086 25.0623 46.9378 24.9877C47.168 25.0234 47.3788 25.0721 47.5896 25.0883C47.8491 25.1077 48.0631 25.0039 48.2253 24.7964C48.4815 24.4688 48.6144 24.177 48.3744 23.7294C47.7842 22.6236 47.2653 21.4755 46.7075 20.3178C46.8437 20.3178 46.967 20.308 47.087 20.3243C47.1291 20.3307 47.1745 20.3924 47.1972 20.4378C47.5799 21.2583 47.9626 22.0787 48.342 22.9025C48.475 23.1846 48.6047 23.4668 48.7571 23.7878C48.7928 23.7067 48.8155 23.6581 48.8349 23.6062C49.2436 22.5911 49.6522 21.5761 50.0608 20.561C50.1257 20.3967 50.2478 20.3156 50.4273 20.3178C50.4694 20.3178 50.5116 20.3243 50.5667 20.3275C50.3689 20.7977 50.1808 21.255 49.9895 21.709C49.6198 22.5944 49.2501 23.4797 48.8771 24.3651C48.6663 24.8645 48.3874 25.3023 47.8166 25.4515H47.2977L47.301 25.4482Z" fill="#E00A0B"/>
<path id="Vector_5" d="M35.6808 12.2556C35.6808 14.6327 33.9263 16.6532 31.5751 16.9872C30.0833 17.198 28.7213 16.8834 27.5602 15.904C26.3506 14.8825 25.822 13.5463 25.9128 11.9832C26.036 9.88171 27.463 8.15318 29.5061 7.6343C31.6497 7.09271 33.8485 7.88401 34.99 9.74551C35.4635 10.5141 35.684 11.354 35.6808 12.2556ZM30.7806 9.31094C29.9341 9.31418 29.2045 9.6093 28.6726 10.2709C27.9202 11.2081 27.81 12.2816 28.2121 13.3874C28.5656 14.3603 29.2855 14.9798 30.3136 15.1581C31.374 15.3397 32.2886 15.0252 32.9696 14.1722C33.495 13.5139 33.6312 12.7388 33.5566 11.9118C33.4269 10.4428 32.2464 9.3304 30.7806 9.31094Z" fill="#E00A0B"/>
<path id="Vector_6" d="M20.3029 12.995H13.5606C13.6028 13.1734 13.632 13.3323 13.6774 13.4912C14.0082 14.6035 14.9422 15.3008 16.1032 15.3332C17.0501 15.3592 17.8414 15.0187 18.5257 14.3895C18.5776 14.3409 18.6295 14.2955 18.6911 14.2371C19.0997 14.6003 19.5051 14.9603 19.9429 15.3494C19.6867 15.5862 19.4565 15.8262 19.2003 16.037C18.1884 16.8672 17.0112 17.1396 15.7302 17.0326C14.5562 16.9353 13.5379 16.4813 12.7207 15.6251C11.978 14.85 11.5759 13.9095 11.4754 12.8426C11.3651 11.6881 11.5532 10.5854 12.1759 9.59307C13.058 8.19208 14.3325 7.46889 15.9994 7.48186C18.1041 7.49808 19.6251 8.73691 20.1569 10.8546C20.3256 11.5292 20.3775 12.2167 20.3191 12.9139C20.3191 12.9399 20.3094 12.9658 20.3029 13.0015V12.995ZM18.2792 11.5973C18.1755 11.2405 18.1074 10.8935 17.9744 10.5725C17.2966 8.9769 15.5065 8.88933 14.5757 9.63199C13.9498 10.1314 13.6612 10.8124 13.5542 11.5973H18.2825H18.2792Z" fill="#E00A0B"/>
<path id="Vector_7" d="M45.2447 9.06119C44.8102 9.5217 44.3756 9.98545 43.9475 10.4427C43.6946 10.2352 43.4578 10.0309 43.2113 9.84276C41.8914 8.83093 39.7089 9.22658 39.0732 11.2308C38.7262 12.3204 38.8722 13.3647 39.6083 14.2695C40.4029 15.2424 41.8882 15.5083 42.9778 14.8759C43.3119 14.6813 43.6038 14.4219 43.9151 14.1884C43.9572 14.156 43.9929 14.1171 44.048 14.0684C44.4567 14.4965 44.862 14.9181 45.2642 15.3429C44.1097 16.7277 42.4525 17.4249 40.2537 16.8704C38.1457 16.3385 36.9004 14.503 36.8096 12.528C36.7123 10.3941 37.9187 8.49041 39.8872 7.76722C41.5898 7.14456 43.8372 7.404 45.2415 9.05794L45.2447 9.06119Z" fill="#E00A0B"/>
<path id="Vector_8" d="M51.6236 7.66994V5.67548H53.7218V7.65372H56.1865V9.46333H53.7315C53.7315 9.53792 53.7315 9.59629 53.7315 9.65467C53.7315 11.0719 53.7315 12.4858 53.7315 13.903C53.7315 14.0165 53.738 14.13 53.7542 14.2403C53.8256 14.7689 54.1304 15.0576 54.6623 15.103C55.1422 15.1451 55.5963 15.0543 56.0341 14.863C56.073 14.8468 56.1119 14.8305 56.1638 14.8111C56.1638 15.3656 56.1638 15.904 56.1606 16.4423C56.1606 16.4877 56.1054 16.5526 56.0568 16.5785C55.6676 16.7861 55.2525 16.919 54.8115 16.9612C54.2926 17.0099 53.7737 17.0034 53.2678 16.8672C52.3338 16.6142 51.8344 15.9753 51.6884 15.0413C51.6495 14.7851 51.6333 14.5257 51.63 14.2663C51.6236 12.7388 51.63 11.2081 51.63 9.68061C51.63 8.15315 51.63 9.55089 51.63 9.46657H50.4755V7.66669H51.6268L51.6236 7.66994Z" fill="#E00A0B"/>
<path id="Vector_9" d="M22.0768 4.15454H24.1458V16.8315H22.0768V4.15454Z" fill="#E00A0B"/>
<path id="Vector_10" d="M46.8597 7.66998H48.9418V16.8315H46.8597V7.66998Z" fill="#E00A0B"/>
<path id="Vector_11" d="M44.5051 3.26917V4.34261C38.5347 4.17721 32.5708 4.01182 26.6069 3.84642V3.82048C32.5676 3.63563 38.5282 3.45402 44.5051 3.26917Z" fill="#E00A0B"/>
<path id="Vector_12" d="M24.0387 25.4158H23.6755V23.3468C23.5976 23.4408 23.5522 23.4992 23.5036 23.5608C23.0204 24.1673 22.3977 24.4235 21.6421 24.2386C20.867 24.0473 20.3903 23.5251 20.2314 22.7501C20.0725 21.9685 20.2346 21.2485 20.8508 20.6972C21.6713 19.9611 22.842 20.0875 23.5457 20.9794C23.5782 21.0215 23.6106 21.0637 23.6657 21.135V20.3275H24.0387V25.4158ZM20.5719 22.2895C20.5849 22.3901 20.5913 22.5328 20.6173 22.669C20.8346 23.8008 22.0864 24.3132 23.0074 23.6354C23.5976 23.2008 23.7857 22.5944 23.6592 21.8874C23.4776 20.8821 22.375 20.2918 21.4605 20.7167C20.8151 21.015 20.5946 21.5793 20.5719 22.2895Z" fill="#E00A0B"/>
<path id="Vector_13" d="M19.6705 22.4062H16.4372C16.3821 22.8862 16.7388 23.5186 17.2253 23.7553C18.0036 24.1348 18.6781 23.924 19.2748 23.3305C19.3592 23.4051 19.4402 23.4764 19.5278 23.5543C19.0738 24.0505 18.5354 24.3261 17.8544 24.2937C16.7193 24.2386 15.9118 23.2656 16.0221 22.0852C16.074 21.5306 16.2718 21.0474 16.6902 20.6745C17.6825 19.7891 19.1646 20.2334 19.5343 21.5306C19.6121 21.8063 19.6251 22.0982 19.6705 22.4062ZM19.2294 22.069C19.2003 21.1642 18.5873 20.5253 17.7895 20.5675C17.0469 20.6064 16.3821 21.3393 16.434 22.069H19.2294Z" fill="#E00A0B"/>
<path id="Vector_14" d="M51.202 22.4095C51.2604 23.0354 51.5134 23.5251 52.0679 23.7813C52.8235 24.1315 53.4851 23.9142 54.0624 23.3305C54.1467 23.4051 54.2245 23.4732 54.3218 23.5575C53.9618 23.9337 53.563 24.2191 53.0408 24.2807C52.0614 24.3942 51.2474 23.911 50.9361 23.0354C50.5956 22.0819 50.9361 21.002 51.7209 20.4928C52.5219 19.9772 53.9197 20.1264 54.3315 21.5598C54.4061 21.8225 54.4159 22.1079 54.4613 22.4095H51.202ZM51.2053 22.0657H54.0202C53.9878 21.1933 53.4365 20.5901 52.6646 20.5674C51.9058 20.548 51.2961 21.1674 51.2085 22.0657H51.2053Z" fill="#E00A0B"/>
<path id="Vector_15" d="M32.9051 22.4095H29.6816C29.607 22.8376 29.9767 23.483 30.4437 23.7489C31.0696 24.1056 31.7733 23.9694 32.5192 23.337C32.597 23.4051 32.6781 23.4732 32.7754 23.5543C32.4057 23.9402 31.9906 24.2256 31.4458 24.284C30.408 24.3942 29.6978 23.8202 29.4091 23.097C29.0589 22.2279 29.3086 21.1901 29.9994 20.6161C30.849 19.9091 32.3992 20.094 32.7949 21.6052C32.8597 21.8582 32.8662 22.1241 32.9051 22.4095ZM29.6653 22.069H32.477C32.4479 21.1869 31.8576 20.5577 31.0761 20.5675C30.3204 20.5772 29.6718 21.2647 29.6653 22.069Z" fill="#E00A0B"/>
<path id="Vector_16" d="M28.0408 20.321H28.4041V24.1996H28.0441V23.5089C27.9371 23.6354 27.8592 23.7326 27.7782 23.8267C27.1587 24.5564 25.641 24.4526 25.2356 23.4537C25.1675 23.2851 25.1027 23.1035 25.0994 22.9251C25.0864 22.0625 25.0929 21.1966 25.0929 20.3242H25.4529C25.4529 20.5058 25.4529 20.6842 25.4529 20.8593C25.4561 21.5079 25.4334 22.1565 25.4724 22.8019C25.5145 23.5154 25.9523 23.924 26.6107 23.9499C27.3079 23.9759 27.8852 23.5348 28.0052 22.8765C28.0279 22.75 28.0344 22.6203 28.0376 22.4906C28.0376 21.7706 28.0376 21.0539 28.0376 20.321H28.0408Z" fill="#E00A0B"/>
<path id="Vector_17" d="M33.6868 20.321H34.037V21.0183C34.0921 20.9534 34.1213 20.921 34.144 20.8853C34.6435 20.1718 35.4283 20.1005 36.0769 20.3307C36.6152 20.5221 36.9428 20.9437 36.972 21.4982C37.0174 22.3901 36.9849 23.2884 36.9849 24.1964H36.6314C36.6314 24.1348 36.6314 24.0764 36.6314 24.0181C36.6314 23.2949 36.6379 22.5684 36.6314 21.8452C36.625 21.3782 36.4887 20.9567 36.0542 20.7199C35.3602 20.3405 34.264 20.6194 34.0759 21.6831C34.0565 21.7998 34.05 21.9198 34.05 22.0366C34.05 22.6949 34.05 23.3565 34.05 24.0148C34.05 24.0732 34.05 24.1316 34.05 24.1964H33.69V20.3178L33.6868 20.321Z" fill="#E00A0B"/>
<path id="Vector_18" d="M11.8807 20.6583V24.1965H11.5045V20.6616H10.95V20.321H11.4883C11.5013 20.0908 11.498 19.867 11.524 19.6497C11.6375 18.6865 12.419 18.4855 13.1617 18.6801C13.1941 18.6898 13.2363 18.7417 13.2395 18.7774C13.2525 18.8617 13.2428 18.9492 13.2428 19.0336C13.0547 19.0076 12.8796 18.9687 12.7044 18.9622C12.2374 18.946 11.9845 19.1471 11.9066 19.6076C11.8677 19.8346 11.8775 20.0681 11.8645 20.3145H13.2201V20.6583H11.8775H11.8807Z" fill="#E00A0B"/>
<path id="Vector_19" d="M43.3771 24.1997H42.9977V20.6583H42.4464V20.3145H42.9847C42.9977 20.0843 42.9977 19.8702 43.0204 19.6562C43.1274 18.6606 43.9576 18.4854 44.6646 18.68C44.697 18.6898 44.7294 18.7449 44.7359 18.7838C44.7457 18.8681 44.7392 18.9557 44.7392 19.0238C44.5316 19.0011 44.3338 18.9654 44.136 18.9622C43.763 18.9557 43.5101 19.1373 43.4322 19.5005C43.3771 19.76 43.3803 20.0324 43.3544 20.3145H44.723V20.6485H43.3771V24.1997Z" fill="#E00A0B"/>
<path id="Vector_20" d="M38.2499 20.6583H37.6921V20.3178H38.2467V19.0757H38.6132V20.308H39.972V20.6486H38.6164C38.6164 20.7264 38.6164 20.7815 38.6164 20.8399C38.6164 21.5858 38.6261 22.3317 38.6164 23.0743C38.6034 23.7165 38.9472 23.9694 39.5796 23.8948C39.7061 23.8786 39.8293 23.8364 39.9558 23.804C39.9558 23.804 39.9687 23.8137 39.9687 23.8202C39.985 24.1575 39.9687 24.1964 39.6315 24.2386C39.4304 24.2645 39.2196 24.2678 39.0218 24.2321C38.5548 24.1478 38.2629 23.7813 38.2564 23.2851C38.2467 22.4744 38.2532 21.6636 38.2532 20.8561C38.2532 20.7977 38.2532 20.7361 38.2532 20.655L38.2499 20.6583Z" fill="#E00A0B"/>
<path id="Vector_21" d="M55.5962 24.1996H55.2297V20.3242H55.5897V21.336C55.7908 21.0344 55.9983 20.7523 56.2967 20.5512C56.5983 20.3469 56.9323 20.2431 57.3085 20.2593V20.6517C57.195 20.6647 57.0783 20.6712 56.9648 20.6939C56.2675 20.8334 55.7583 21.3652 55.6416 22.1111C55.5962 22.4127 55.5994 22.724 55.5962 23.0321C55.5897 23.4148 55.5962 23.7975 55.5962 24.1996Z" fill="#E00A0B"/>
<path id="Vector_22" d="M13.7423 24.1997V20.3275H14.0926V21.3328C14.485 20.6842 15.0071 20.2562 15.8243 20.2562V20.6518C15.6979 20.668 15.5779 20.6745 15.4644 20.6972C14.725 20.8529 14.1899 21.4561 14.1315 22.2539C14.0893 22.8344 14.1088 23.4214 14.0991 24.0019C14.0991 24.0635 14.0991 24.1283 14.0991 24.1997H13.7391H13.7423Z" fill="#E00A0B"/>
<path id="Vector_23" d="M45.9489 24.1996H45.5954V18.6476H45.9489V24.1996Z" fill="#E00A0B"/>
</g>
</svg>
